<?xml version="1.0" encoding="utf-8"?>
<!-- Generator: Adobe Illustrator 15.1.0, SVG Export Plug-In . SVG Version: 6.00 Build 0)  -->
<!DOCTYPE svg PUBLIC "-//W3C//DTD SVG 1.1//EN" "http://www.w3.org/Graphics/SVG/1.1/DTD/svg11.dtd">
<svg version="1.1" id="Capa_1" xmlns="http://www.w3.org/2000/svg" xmlns:xlink="http://www.w3.org/1999/xlink" x="0px" y="0px"
	 width="283.747px" height="283.747px" viewBox="0 0 283.747 283.747" enable-background="new 0 0 283.747 283.747"
	 xml:space="preserve">
<g>
	<g>
		<path fill="#FFFFFF" d="M255.433,87.514V87.41c0-43.485-35.384-78.872-78.871-78.872h-76.251
			c-43.485,0-78.871,35.381-78.871,78.872v2.221C8.912,94.539,0,106.716,0,120.965c0,16.161,7.716,27.401,21.439,31.677v11.021V187
			c-6.35,5.361-10.4,13.354-10.4,22.291v4.074c0,16.086,13.083,29.161,29.161,29.161h4.347c0.083,0.158,0.162,0.32,0.246,0.474
			l12.957,24.938c1.378,2.723,3.676,7.271,9.11,7.271h0.005c3.309,0,6.355-1.935,7.947-5.043l14.256-27.64h11.243h76.251h21.054
			c0.192,0.371,0.381,0.747,0.573,1.112l12.624,24.298c1.284,2.539,3.682,7.272,9.115,7.272h0.005c3.356,0,6.321-1.891,7.94-5.043
			l14.555-28.213c13.33-2.683,23.404-14.474,23.404-28.59v-4.072c0-6.154-1.931-11.862-5.199-16.574v-40.055
			c14.42-4.389,23.113-16.047,23.113-31.698C283.747,103.088,271.804,89.319,255.433,87.514z M244.596,224.322
			c-2.117,1.538-4.682,2.468-7.475,2.56c-0.152,0.006-0.295,0.045-0.447,0.045h-7.973h-5.25h-12.619h-0.051h-8.535h-7.861h-17.823
			h-76.251h-8.262h-7.978h-8.435H60.834h-3.121h-4.296h-4.243H41.32h-1.125c-7.477,0-13.561-6.082-13.561-13.561v-4.074
			c0-3.168,1.137-6.053,2.968-8.357c0.251-0.314,0.495-0.645,0.777-0.934c1.008-1.066,2.199-1.937,3.504-2.631
			c1.896-1.006,4.024-1.631,6.317-1.631h5.662h185.141h5.662c0.629,0,1.219,0.106,1.822,0.184c3.133,0.427,5.926,1.884,7.998,4.078
			c0.284,0.293,0.521,0.619,0.782,0.934c1.828,2.307,2.965,5.189,2.965,8.357v4.074
			C250.232,217.877,247.999,221.854,244.596,224.322z M224.579,242.532l-4.677,9.068l-4.708-9.068H224.579z M71.519,242.532
			l-4.674,9.068l-4.715-9.068H71.519z M255.433,137.839c-1.147,0.315-2.285,0.635-3.642,0.815l-6.758,0.911v26.695v15.111
			c-0.509-0.151-1.027-0.273-1.545-0.4c-1.908-0.457-3.885-0.727-5.921-0.792c-0.3-0.011-0.594-0.046-0.894-0.046H40.2
			c-0.302,0-0.597,0.035-0.899,0.046c-0.759,0.024-1.519,0.056-2.262,0.137v-16.649v-24.096l-6.759-0.912
			c-1.166-0.155-2.404-0.421-3.641-0.77c-1.8-0.505-3.583-1.295-5.2-2.5c-3.301-2.47-5.84-6.713-5.84-14.419
			c0-5.23,2.272-9.913,5.84-13.218c1.523-1.409,3.26-2.604,5.2-3.428c2.164-0.914,4.54-1.424,7.036-1.424
			c1.242,0,2.341,0.16,3.364,0.406c9.562,2.224,10.399,13.835,10.399,17.664v42.939l87.702-4.57l21.312-0.014l72.98,4.6V120.96
			c0-5.923,4.57-11.306,10.398-14.627c1.655-0.947,3.412-1.691,5.201-2.263c2.243-0.718,4.533-1.175,6.717-1.175
			c1.285,0,2.504,0.16,3.683,0.426c7.546,1.701,12.715,8.585,12.715,17.644C268.147,126.195,266.31,134.812,255.433,137.839z
			 M239.833,87.41v1.924c-13.838,4.59-25.998,16.613-25.998,31.63v26.345l-56.885-3.575l-22.211,0.011l-71.701,3.723V120.96
			c0-18.824-10.311-31.864-25.999-33.486v-0.069c0-34.886,28.386-63.272,63.271-63.272h76.251
			C211.447,24.138,239.833,52.524,239.833,87.41z"/>
		<path fill="#FFFFFF" d="M110.705,77c10.062,0,10.062-15.6,0-15.6S100.643,77,110.705,77z"/>
		<path fill="#FFFFFF" d="M165.304,76.137c10.06,0,10.06-15.6,0-15.6S155.245,76.137,165.304,76.137z"/>
		<path fill="#FFFFFF" d="M110.705,118.599c10.062,0,10.062-15.6,0-15.6S100.643,118.599,110.705,118.599z"/>
		<path fill="#FFFFFF" d="M165.304,117.735c10.06,0,10.06-15.6,0-15.6S155.245,117.735,165.304,117.735z"/>
	</g>
</g>
</svg>
