<?xml version="1.0" encoding="utf-8"?>
<!-- Generator: Adobe Illustrator 15.1.0, SVG Export Plug-In . SVG Version: 6.00 Build 0)  -->
<!DOCTYPE svg PUBLIC "-//W3C//DTD SVG 1.1//EN" "http://www.w3.org/Graphics/SVG/1.1/DTD/svg11.dtd">
<svg version="1.1" id="Capa_1" xmlns="http://www.w3.org/2000/svg" xmlns:xlink="http://www.w3.org/1999/xlink" x="0px" y="0px"
	 width="300px" height="300px" viewBox="150 0 300 300" enable-background="new 150 0 300 300" xml:space="preserve">
<g>
	<g>
		<circle fill="#FFFFFF" cx="332.188" cy="32.632" r="33.632"/>
		<path fill="#FFFFFF" d="M416.14,114.669c-30.054-3.091-59.194-35.614-66.527-40.118c-4.499-3.248-9.82-5.375-14.91-6.169
			c0,0-3.618-0.75-7.357-0.338c-3.578,0.397-9.021,0.583-16.987,6.521c-0.576,0.358-4.646,3.902-5.93,5.446
			c-9.917,10.278-37.395,40.675-51.073,75.06c-1.933,4.885-0.707,10.19,2.661,13.769l-16.063,28.623l-22.628-12.713
			c-2.701-1.52-6.129-0.57-7.647,2.135l-42.829,75.68c-1.516,2.701-0.557,6.145,2.151,7.648l17.13,9.634
			c-2.727,4.854-2.071,11.134,2.049,15.308c4.968,5.071,13.129,5.133,18.191,0.15c4.705-4.641,5.089-12.011,1.103-17.092
			l23.386-41.031l16.384-29.193l20.308-35.205c4.391-0.698,8.327-3.625,10.095-8.066c5.789-14.574,14.753-28.618,23.411-40.254
			l4.079,46.885c0.473,5.508,2.767,10.127,6.168,13.774c-10.519,19.073-38.824,71.232-49.043,88.953
			c-4.578,7.952-1.857,18.114,6.091,22.697c2.984,1.711,6.286,2.415,9.484,2.185c5.319-0.385,10.352-3.323,13.212-8.284
			c9.521-16.506,34.354-66.6,45.246-85.429c8.732,14.511,23.61,41.215,42.484,83.857c2.744,6.215,8.826,9.897,15.209,9.897
			c2.258,0,4.533-0.454,6.725-1.427c8.387-3.711,12.183-13.521,8.462-21.908c-22.258-50.323-38.646-78.26-47.727-92.972
			c3.589-4.505,5.751-10.104,5.185-16.677l-3.861-44.409c11.186,8.931,25.781,16.455,50.702,19.032
			c0.463,0.049,0.911,0.072,1.364,0.072c6.601,0,12.276-4.995,12.97-11.709C428.529,121.823,423.317,115.407,416.14,114.669z
			 M197.086,291.234c-2.588,0-4.687-2.098-4.687-4.684s2.099-4.684,4.687-4.684c2.584,0,4.684,2.098,4.684,4.684
			C201.769,289.139,199.671,291.234,197.086,291.234z"/>
	</g>
</g>
</svg>
